<svg width="17" height="18" viewBox="0 0 17 18" fill="none" xmlns="http://www.w3.org/2000/svg">
<mask id="mask0_5065_28366" style="mask-type:alpha" maskUnits="userSpaceOnUse" x="7" y="1" width="3" height="15">
<mask id="path-1-inside-1_5065_28366" fill="white">
<path d="M7.72509 2.11194L7.53535 14.9439C7.52787 15.4501 7.92003 15.8663 8.41127 15.8736C8.90251 15.8809 9.3068 15.4764 9.31429 14.9702L9.50403 2.13825C9.51151 1.63204 9.11935 1.21579 8.62811 1.20853C8.13687 1.20126 7.73257 1.60574 7.72509 2.11194Z"/>
</mask>
<path d="M7.72509 2.11194L7.53535 14.9439C7.52787 15.4501 7.92003 15.8663 8.41127 15.8736C8.90251 15.8809 9.3068 15.4764 9.31429 14.9702L9.50403 2.13825C9.51151 1.63204 9.11935 1.21579 8.62811 1.20853C8.13687 1.20126 7.73257 1.60574 7.72509 2.11194Z" fill="white"/>
<path d="M5.60767 2.08063L5.41794 14.9126L9.65277 14.9752L9.8425 2.14325L5.60767 2.08063ZM5.41794 14.9126C5.39405 16.5278 6.65985 17.9656 8.37996 17.991L8.44258 13.7562C9.1802 13.7671 9.66168 14.3723 9.65277 14.9752L5.41794 14.9126ZM8.37996 17.991C10.1001 18.0164 11.4078 16.6168 11.4317 15.0015L7.19687 14.9389C7.20579 14.336 7.70495 13.7453 8.44258 13.7562L8.37996 17.991ZM11.4317 15.0015L11.6214 2.16956L7.38661 2.10694L7.19687 14.9389L11.4317 15.0015ZM11.6214 2.16956C11.6453 0.554282 10.3795 -0.883454 8.65942 -0.908888L8.5968 3.32594C7.85917 3.31504 7.3777 2.7098 7.38661 2.10694L11.6214 2.16956ZM8.65942 -0.908888C6.93931 -0.934322 5.63156 0.465361 5.60767 2.08063L9.8425 2.14325C9.83359 2.74611 9.33443 3.33685 8.5968 3.32594L8.65942 -0.908888Z" fill="#A3A3B5" mask="url(#path-1-inside-1_5065_28366)"/>
</mask>
<g mask="url(#mask0_5065_28366)">
<path d="M7.6411 2.12464L7.45137 14.9566C7.44388 15.4628 7.83604 15.879 8.32728 15.8863C8.81852 15.8936 9.22282 15.4891 9.2303 14.9829L9.42004 2.15094C9.42753 1.64474 9.03537 1.22849 8.54413 1.22122C8.05289 1.21396 7.64859 1.61843 7.6411 2.12464Z" fill="#838999"/>
</g>
<mask id="mask1_5065_28366" style="mask-type:alpha" maskUnits="userSpaceOnUse" x="5" y="14" width="7" height="3">
<mask id="path-4-inside-2_5065_28366" fill="white">
<path d="M10.1787 14.9828L6.64567 14.9306C6.15443 14.9233 5.75013 15.3278 5.74265 15.834C5.73516 16.3402 6.12732 16.7564 6.61856 16.7637L10.1515 16.8159C10.6428 16.8232 11.0471 16.4187 11.0546 15.9125C11.0621 15.4063 10.6699 14.9901 10.1787 14.9828Z"/>
</mask>
<path d="M10.1787 14.9828L6.64567 14.9306C6.15443 14.9233 5.75013 15.3278 5.74265 15.834C5.73516 16.3402 6.12732 16.7564 6.61856 16.7637L10.1515 16.8159C10.6428 16.8232 11.0471 16.4187 11.0546 15.9125C11.0621 15.4063 10.6699 14.9901 10.1787 14.9828Z" fill="white"/>
<path d="M10.21 12.8654L6.67698 12.8132L6.61436 17.048L10.1473 17.1002L10.21 12.8654ZM6.67698 12.8132C4.95687 12.7877 3.64912 14.1874 3.62523 15.8027L7.86006 15.8653C7.85115 16.4682 7.35199 17.0589 6.61436 17.048L6.67698 12.8132ZM3.62523 15.8027C3.60135 17.418 4.86715 18.8557 6.58726 18.8811L6.64987 14.6463C7.3875 14.6572 7.86898 15.2624 7.86006 15.8653L3.62523 15.8027ZM6.58726 18.8811L10.1202 18.9334L10.1829 14.6985L6.64987 14.6463L6.58726 18.8811ZM10.1202 18.9334C11.8403 18.9588 13.1481 17.5591 13.172 15.9438L8.93715 15.8812C8.94607 15.2784 9.44523 14.6876 10.1829 14.6985L10.1202 18.9334ZM13.172 15.9438C13.1959 14.3286 11.9301 12.8908 10.21 12.8654L10.1473 17.1002C9.40972 17.0893 8.92824 16.4841 8.93715 15.8812L13.172 15.9438Z" fill="#A3A3B5" mask="url(#path-4-inside-2_5065_28366)"/>
</mask>
<g mask="url(#mask1_5065_28366)">
<path d="M10.1787 14.9838L6.64567 14.9316C6.15443 14.9243 5.75013 15.3288 5.74265 15.835C5.73516 16.3412 6.12733 16.7574 6.61857 16.7647L10.1515 16.8169C10.6428 16.8242 11.0471 16.4197 11.0546 15.9135C11.0621 15.4073 10.6699 14.9911 10.1787 14.9838Z" fill="#838999"/>
</g>
<mask id="mask2_5065_28366" style="mask-type:alpha" maskUnits="userSpaceOnUse" x="5" y="1" width="7" height="3">
<mask id="path-7-inside-3_5065_28366" fill="white">
<path d="M10.3818 1.23477L6.8488 1.18253C6.35756 1.17527 5.95326 1.57974 5.94577 2.08594C5.93829 2.59215 6.33045 3.0084 6.82169 3.01566L10.3547 3.0679C10.8459 3.07517 11.2502 2.67069 11.2577 2.16449C11.2652 1.65828 10.873 1.24203 10.3818 1.23477Z"/>
</mask>
<path d="M10.3818 1.23477L6.8488 1.18253C6.35756 1.17527 5.95326 1.57974 5.94577 2.08594C5.93829 2.59215 6.33045 3.0084 6.82169 3.01566L10.3547 3.0679C10.8459 3.07517 11.2502 2.67069 11.2577 2.16449C11.2652 1.65828 10.873 1.24203 10.3818 1.23477Z" fill="white"/>
<path d="M10.4131 -0.882646L6.8801 -0.934886L6.81749 3.29994L10.3505 3.35218L10.4131 -0.882646ZM6.8801 -0.934886C5.16 -0.96032 3.85224 0.439362 3.82836 2.05464L8.06319 2.11725C8.05428 2.72011 7.55511 3.31085 6.81749 3.29994L6.8801 -0.934886ZM3.82836 2.05464C3.80447 3.66991 5.07027 5.10764 6.79038 5.13308L6.853 0.898247C7.59063 0.909154 8.0721 1.51439 8.06319 2.11725L3.82836 2.05464ZM6.79038 5.13308L10.3234 5.18532L10.386 0.950487L6.853 0.898247L6.79038 5.13308ZM10.3234 5.18532C12.0435 5.21075 13.3512 3.81107 13.3751 2.1958L9.14028 2.13318C9.14919 1.53032 9.64835 0.93958 10.386 0.950487L10.3234 5.18532ZM13.3751 2.1958C13.399 0.580524 12.1332 -0.857212 10.4131 -0.882646L10.3505 3.35218C9.61284 3.34128 9.13136 2.73604 9.14028 2.13318L13.3751 2.1958Z" fill="#A3A3B5" mask="url(#path-7-inside-3_5065_28366)"/>
</mask>
<g mask="url(#mask2_5065_28366)">
<path d="M10.3818 1.23477L6.8488 1.18253C6.35756 1.17527 5.95326 1.57974 5.94577 2.08594C5.93829 2.59215 6.33045 3.0084 6.82169 3.01566L10.3547 3.0679C10.8459 3.07517 11.2502 2.67069 11.2577 2.16449C11.2652 1.65828 10.873 1.24203 10.3818 1.23477Z" fill="#838999"/>
</g>
</svg>
