<svg width="17" height="18" viewBox="0 0 17 18" fill="none" xmlns="http://www.w3.org/2000/svg">
<path d="M11.7794 2.16415C11.9671 1.9765 12.1899 1.82765 12.435 1.72609C12.6802 1.62454 12.943 1.57227 13.2084 1.57227C13.4737 1.57227 13.7365 1.62454 13.9817 1.72609C14.2269 1.82765 14.4496 1.9765 14.6373 2.16415C14.8249 2.35179 14.9738 2.57457 15.0753 2.81974C15.1769 3.06492 15.2292 3.32769 15.2292 3.59307C15.2292 3.85845 15.1769 4.12122 15.0753 4.3664C14.9738 4.61157 14.8249 4.83435 14.6373 5.022L4.99204 14.6672L1.0625 15.7389L2.13419 11.8094L11.7794 2.16415Z" stroke="currentColor" stroke-width="2" stroke-linecap="round" stroke-linejoin="round"/>
</svg>
